<svg width="24" height="24" viewBox="0 0 24 24" fill="none" xmlns="http://www.w3.org/2000/svg">
  <path d="M12.005 22.003C6.48201 22.003 2.005 17.526 2.005 12.003C2.005 6.47999 6.48201 2.00299 12.005 2.00299C17.528 2.00299 22.005 6.47999 22.005 12.003C22.005 17.526 17.528 22.003 12.005 22.003ZM12.005 20.003C14.1267 20.003 16.1616 19.1601 17.6619 17.6598C19.1621 16.1596 20.005 14.1247 20.005 12.003C20.005 9.88126 19.1621 7.84643 17.6619 6.34614C16.1616 4.84585 14.1267 4.00299 12.005 4.00299C9.88327 4.00299 7.84844 4.84585 6.34815 6.34614C4.84786 7.84643 4.005 9.88126 4.005 12.003C4.005 14.1247 4.84786 16.1596 6.34815 17.6598C7.84844 19.1601 9.88327 20.003 12.005 20.003ZM12.005 7.05299L16.955 12.003L12.005 16.953L7.055 12.003L12.005 7.05299ZM12.005 9.88099L9.884 12.003L12.004 14.124L14.126 12.003L12.005 9.88099Z" fill="#7969E6"/>
</svg>
