<svg width="34" height="35" viewBox="0 0 34 35" fill="none" xmlns="http://www.w3.org/2000/svg">
  <path d="M31.2459 17.9734C31.2459 18.6607 31.0727 19.3115 30.7679 19.8772C30.7261 19.9502 30.6843 20.0292 30.6365 20.1022C29.9433 21.197 28.7363 21.9269 27.3619 21.9269H26.3641C24.0277 21.9269 22.1275 23.8611 22.1275 26.2393V30.2171C22.1275 30.8557 21.9781 31.464 21.7092 31.9931C21.0758 33.2826 19.7613 34.1706 18.2435 34.1706C18.1539 34.1706 18.0642 34.1645 17.9746 34.1584V25.3695C17.9746 24.889 18.0164 24.4146 18.1061 23.9584C18.2315 23.2407 18.4646 22.5595 18.7753 21.9269C19.5043 20.455 20.6815 19.2568 22.1275 18.5147C22.5518 18.2958 23.0059 18.1194 23.472 17.9856C24.1173 17.797 24.8045 17.6997 25.5096 17.6997H31.234C31.24 17.7909 31.2459 17.8822 31.2459 17.9734Z" fill="#7969E6"/>
  <path d="M34.0006 16.1858C34.0006 16.277 33.9946 16.3683 33.9886 16.4534H25.5096C24.9419 16.4534 24.3862 16.3865 23.8544 16.2649C23.2449 16.1311 22.6653 15.9182 22.1275 15.6384C20.6815 14.8963 19.5043 13.6981 18.7753 12.2262C18.602 11.8795 18.4586 11.5207 18.3451 11.1436H18.3391C18.1001 10.4015 17.9746 9.60474 17.9746 8.78363V3.24874C18.0642 3.24265 18.1539 3.23657 18.2435 3.23657C18.7514 3.23657 19.2414 3.33997 19.6895 3.52244C19.7732 3.55285 19.8509 3.58935 19.9286 3.63192C21.2312 4.26448 22.1275 5.62084 22.1275 7.19007V7.91386C22.1275 10.2616 23.9679 12.1715 26.2565 12.2262C26.2923 12.2323 26.3282 12.2323 26.3641 12.2323C26.3999 12.2323 26.4358 12.2323 26.4716 12.2262H30.1106C30.7918 12.2262 31.4312 12.4026 31.9869 12.7128C33.1879 13.3879 34.0006 14.6895 34.0006 16.1858Z" fill="#7969E6"/>
  <path d="M16.0917 25.3695V31.0747C15.9901 31.0808 15.8886 31.0869 15.787 31.0869C15.297 31.0869 14.8309 30.9956 14.4007 30.8253C14.2692 30.7767 14.1437 30.7219 14.0183 30.655C12.9128 30.0833 12.1181 28.9885 11.9388 27.6929V26.2393C11.9388 23.8611 10.0387 21.9269 7.70228 21.9269H3.88998C3.23268 21.9269 2.61124 21.7627 2.06748 21.4707C0.836555 20.8078 0 19.4879 0 17.9734C0 17.8822 0.00597566 17.7909 0.011951 17.6997H8.55676C9.1782 17.6997 9.78171 17.7788 10.3553 17.9248C10.9111 18.0586 11.4429 18.2593 11.9388 18.5147C13.3849 19.2568 14.562 20.455 15.291 21.9269C15.4882 22.3223 15.6495 22.7419 15.775 23.1738C15.9842 23.8672 16.0917 24.6092 16.0917 25.3695Z" fill="#7969E6"/>
  <path d="M16.0905 0.0121649V8.78285C16.0905 9.32417 16.0367 9.85941 15.9232 10.3703C15.7917 11.0211 15.5766 11.6476 15.2898 12.2254C14.5608 13.6973 13.3836 14.8956 11.9376 15.6376C11.5611 15.8322 11.1667 15.9965 10.7544 16.1181C10.0553 16.3371 9.32035 16.4526 8.55551 16.4526H2.99242C2.98644 16.3675 2.98047 16.2762 2.98047 16.185C2.98047 15.5342 3.13583 14.926 3.40472 14.3846C3.46447 14.263 3.5302 14.1414 3.60788 14.0258C4.29505 12.9431 5.49611 12.2254 6.86447 12.2254H7.59347C7.62932 12.2315 7.66517 12.2315 7.70103 12.2315C7.73688 12.2315 7.77273 12.2315 7.80858 12.2254C10.0972 12.1707 11.9376 10.2608 11.9376 7.91308V3.95958C11.9376 3.30877 12.0929 2.70054 12.3618 2.15922C13.0012 0.875851 14.3158 0 15.8276 0C15.9172 0 16.0068 0.00608258 16.0905 0.0121649Z" fill="#7969E6"/>
</svg>
