<svg width="20" height="20" viewBox="0 0 20 20" fill="none" xmlns="http://www.w3.org/2000/svg">
  <path d="M0.000976562 10.0003C0.000976562 9.13533 0.110977 8.29633 0.316977 7.49633C0.869442 7.52537 1.41918 7.40108 1.90542 7.1372C2.39166 6.87331 2.79546 6.48012 3.07218 6.00107C3.34891 5.52203 3.48778 4.97579 3.47345 4.42275C3.45912 3.86971 3.29214 3.3314 2.99098 2.86733C4.19981 1.67753 5.69167 0.815111 7.32598 0.361328C7.57697 0.854801 7.95961 1.2692 8.43156 1.55864C8.90351 1.84808 9.44634 2.00128 9.99998 2.00128C10.5536 2.00128 11.0964 1.84808 11.5684 1.55864C12.0403 1.2692 12.423 0.854801 12.674 0.361328C14.3083 0.815111 15.8001 1.67753 17.009 2.86733C16.7075 3.33148 16.5402 3.87 16.5258 4.42329C16.5114 4.97659 16.6503 5.52309 16.9272 6.00234C17.2041 6.48159 17.6081 6.87489 18.0947 7.13874C18.5812 7.40259 19.1313 7.5267 19.684 7.49733C19.89 8.29733 20 9.13533 20 10.0003C20 10.8643 19.89 11.7033 19.684 12.5033C19.1313 12.474 18.5812 12.5981 18.0947 12.8619C17.6081 13.1258 17.2041 13.5191 16.9272 13.9983C16.6503 14.4776 16.5114 15.0241 16.5258 15.5774C16.5402 16.1307 16.7075 16.6692 17.009 17.1333C15.8 18.3228 14.3082 19.1848 12.674 19.6383C12.423 19.1449 12.0403 18.7305 11.5684 18.441C11.0964 18.1516 10.5536 17.9984 9.99998 17.9984C9.44634 17.9984 8.90351 18.1516 8.43156 18.441C7.95961 18.7305 7.57697 19.1449 7.32598 19.6383C5.69177 19.1848 4.19992 18.3228 2.99098 17.1333C3.29248 16.6692 3.45971 16.1307 3.47414 15.5774C3.48858 15.0241 3.34968 14.4776 3.07279 13.9983C2.7959 13.5191 2.39183 13.1258 1.90528 12.8619C1.41874 12.5981 0.868681 12.474 0.315977 12.5033C0.110977 11.7033 0.000976562 10.8643 0.000976562 10.0003ZM4.80498 13.0003C5.43498 14.0913 5.61498 15.3463 5.36898 16.5243C5.77698 16.8143 6.21098 17.0653 6.66598 17.2743C7.58264 16.4532 8.77029 15.9995 10.001 16.0003C11.261 16.0003 12.439 16.4713 13.336 17.2743C13.791 17.0653 14.225 16.8143 14.633 16.5243C14.3804 15.3203 14.5813 14.0654 15.197 13.0003C15.8116 11.9347 16.798 11.1335 17.967 10.7503C18.0131 10.2514 18.0131 9.74926 17.967 9.25033C16.7976 8.86739 15.8108 8.06615 15.196 7.00033C14.5803 5.93526 14.3794 4.68036 14.632 3.47633C14.2241 3.18626 13.7898 2.93516 13.335 2.72633C12.4186 3.54726 11.2313 4.00094 10.001 4.00033C8.77029 4.00118 7.58264 3.54749 6.66598 2.72633C6.21111 2.93515 5.77686 3.18626 5.36898 3.47633C5.62154 4.68036 5.4207 5.93526 4.80498 7.00033C4.19035 8.06596 3.20396 8.86717 2.03498 9.25033C1.98872 9.74926 1.98872 10.2514 2.03498 10.7503C3.20433 11.1333 4.19011 11.9345 4.80498 13.0003ZM10.001 13.0003C9.20533 13.0003 8.44226 12.6843 7.87966 12.1216C7.31705 11.559 7.00098 10.796 7.00098 10.0003C7.00098 9.20468 7.31705 8.44162 7.87966 7.87901C8.44226 7.3164 9.20533 7.00033 10.001 7.00033C10.7966 7.00033 11.5597 7.3164 12.1223 7.87901C12.6849 8.44162 13.001 9.20468 13.001 10.0003C13.001 10.796 12.6849 11.559 12.1223 12.1216C11.5597 12.6843 10.7966 13.0003 10.001 13.0003ZM10.001 11.0003C10.2662 11.0003 10.5205 10.895 10.7081 10.7074C10.8956 10.5199 11.001 10.2655 11.001 10.0003C11.001 9.73511 10.8956 9.48076 10.7081 9.29322C10.5205 9.10569 10.2662 9.00033 10.001 9.00033C9.73576 9.00033 9.48141 9.10569 9.29387 9.29322C9.10633 9.48076 9.00098 9.73511 9.00098 10.0003C9.00098 10.2655 9.10633 10.5199 9.29387 10.7074C9.48141 10.895 9.73576 11.0003 10.001 11.0003Z" fill="#171717"/>
</svg>
