<svg width="48" height="48" viewBox="0 0 48 48" fill="none" xmlns="http://www.w3.org/2000/svg">
  <g clip-path="url(#clip0_145_1120)">
    <rect width="48" height="48" rx="24" fill="#8DBBFF"/>
    <path d="M76.302 27.6331C76.202 27.5731 76.082 27.5531 75.982 27.5331L76.622 27.0531C76.902 26.8531 77.062 26.5331 77.062 26.1931C77.062 25.9931 77.002 25.7931 76.882 25.6131C76.662 25.2931 76.302 25.1531 75.962 25.1731L76.242 24.9731C76.702 24.6331 76.802 23.9931 76.502 23.5331C76.182 23.0731 75.562 22.9531 75.102 23.2931L74.962 23.3931C75.162 23.0531 75.162 22.5931 74.942 22.2531C74.622 21.7931 74.002 21.6731 73.542 22.0131L68.022 26.0331L65.822 26.3131L67.682 24.2931C68.062 23.8731 68.042 23.2131 67.662 22.8331C67.582 22.7531 67.502 22.6931 67.402 22.6531C67.022 22.4731 66.542 22.5531 66.242 22.8731C65.262 23.6531 63.922 24.8731 62.702 26.7131C61.202 28.9931 59.322 35.8131 58.562 37.8331C55.542 45.9531 54.482 46.5531 53.802 46.6131C53.722 46.6131 53.642 46.6131 53.562 46.6131C53.562 46.6131 53.562 46.6131 53.542 46.6131C51.642 46.3531 46.882 40.2931 43.702 37.8731C42.482 36.9331 40.662 35.7331 38.182 34.6331C39.442 38.9131 40.642 43.5131 41.682 48.4331C41.882 49.4131 42.082 50.3731 42.282 51.3331C43.102 53.0331 44.202 54.5131 45.522 55.6931C45.762 55.9131 46.022 56.1131 46.282 56.3131C47.582 57.2931 49.042 57.9731 50.582 58.3131C50.882 58.3731 51.162 58.4331 51.462 58.4731C52.262 58.5731 53.042 58.5931 53.762 58.5131C56.782 58.2331 58.962 56.6731 59.642 56.1731C59.642 56.1731 64.622 53.1931 68.242 39.8131C68.482 38.9531 68.682 38.0531 68.682 38.0531C68.802 37.5531 68.882 37.2331 68.882 37.2331C69.082 36.3331 69.262 35.3931 69.422 34.3931C69.502 33.9131 69.562 33.4731 69.622 33.0131C70.022 32.8531 70.602 32.6131 71.282 32.3331C74.302 31.1331 75.442 30.2531 76.442 29.4731C76.882 29.1331 76.962 28.4731 76.642 28.0131C76.562 27.7931 76.442 27.6931 76.302 27.6331Z" fill="#FF1EAD"/>
    <path d="M17.1019 36.473C16.6619 41.633 16.2219 46.773 15.7819 51.933C13.9819 56.493 12.1419 61.093 10.2219 65.733V65.673C10.2219 65.513 10.0819 65.373 9.92194 65.373C9.76194 65.373 9.62194 65.513 9.62194 65.673V67.173C8.58194 69.653 7.54194 72.153 6.48194 74.653C6.26194 75.153 6.06194 75.653 5.84194 76.153C4.86194 78.453 3.88194 80.733 2.88194 82.993C2.88194 83.013 2.90194 85.153 2.90194 85.153V85.413C2.90194 86.053 2.44194 86.533 1.84194 86.513C1.70194 86.513 1.56194 86.473 1.44194 86.413C1.40194 86.393 1.38194 86.373 1.34194 86.373C1.06194 86.213 0.841942 85.913 0.781942 85.573C0.761942 85.873 0.641943 86.113 0.441943 86.293C0.261943 86.473 0.00194168 86.573 -0.278058 86.573C-0.778058 86.553 -1.19806 86.153 -1.31806 85.633C-1.31806 85.613 -1.33806 85.593 -1.33806 85.553C-1.33806 85.573 -1.33806 85.593 -1.33806 85.613C-1.41806 86.113 -1.81806 86.493 -2.29806 86.493C-2.31806 86.493 -2.33806 86.493 -2.37806 86.493C-2.71806 86.473 -3.01806 86.293 -3.21806 86.013C-3.33806 85.853 -3.41806 85.673 -3.43806 85.473C-3.43806 85.453 -3.43806 85.433 -3.45806 85.393C-3.45806 85.413 -3.47806 85.453 -3.47806 85.473C-3.51806 85.593 -3.57806 85.693 -3.63806 85.793C-3.85806 86.073 -4.19806 86.233 -4.55806 86.173C-4.73806 86.153 -4.91806 86.073 -5.05806 85.953C-5.21806 85.833 -5.33806 85.673 -5.41806 85.493C-5.49806 85.313 -5.55806 85.093 -5.53806 84.873V84.793L-5.47806 84.033L-5.43806 83.473L-5.39806 82.793L-5.37806 82.593C-5.41806 82.613 -5.43806 82.653 -5.47806 82.673C-5.51806 82.693 -5.53806 82.733 -5.57806 82.773C-5.63806 82.833 -5.69806 82.893 -5.75806 82.953C-5.81806 83.013 -5.87806 83.073 -5.93806 83.133C-5.93806 83.133 -5.93806 83.133 -5.95806 83.153C-5.99806 83.213 -6.05806 83.253 -6.09806 83.313C-6.17806 83.393 -6.25806 83.493 -6.31806 83.593C-6.35806 83.653 -6.41806 83.713 -6.45806 83.773C-6.63806 84.013 -6.81806 84.273 -6.97806 84.533C-7.03806 84.613 -7.07806 84.713 -7.13806 84.793C-7.17806 84.853 -7.21806 84.913 -7.23806 84.973C-7.27806 85.033 -7.29806 85.093 -7.33806 85.153C-7.35806 85.193 -7.37806 85.233 -7.39806 85.273C-7.43806 85.333 -7.45806 85.393 -7.49806 85.473C-7.55806 85.593 -7.61806 85.733 -7.67806 85.853C-7.69806 85.913 -7.73806 85.973 -7.75806 86.033C-7.79806 86.133 -7.83806 86.213 -7.87806 86.313C-8.11806 86.353 -8.35806 86.293 -8.57806 86.173C-9.11806 85.873 -9.29806 85.173 -8.99806 84.653L-6.39806 80.153C-5.95806 78.873 -5.51806 77.553 -5.03806 76.193C-2.75806 69.633 0.00194073 62.333 3.26194 54.513C5.16194 49.973 7.52194 44.553 12.9019 39.633C14.5819 38.193 16.0819 37.133 17.1019 36.473Z" fill="#FF1EAD"/>
    <path d="M53.5418 46.593C51.6418 46.333 46.8818 40.273 43.7018 37.853C42.4818 36.913 40.6618 35.713 38.1818 34.613C37.9818 34.513 37.7418 34.413 37.5218 34.333C37.5218 34.333 37.5218 34.333 37.5018 34.333C36.5018 33.913 35.2618 33.513 33.8618 33.213C32.3818 32.893 31.0618 32.793 29.9418 32.773C29.7418 32.773 29.5418 32.773 29.3418 32.773H29.2418C26.7418 32.793 24.5018 33.253 22.5418 33.933C21.5218 34.273 20.5818 34.673 19.7218 35.093C19.5018 35.193 19.2818 35.313 19.0618 35.413C18.8818 35.513 18.6818 35.613 18.5018 35.713C18.3018 35.813 18.1218 35.913 17.9418 36.013C17.6418 36.173 17.3618 36.353 17.0818 36.513C16.0618 37.193 14.5818 38.253 12.9618 39.733C7.58178 44.633 5.22178 50.073 3.32178 54.613C0.061779 62.433 -2.67822 69.733 -4.97822 76.293C-5.79822 76.213 -6.49822 75.953 -7.09822 75.333C-9.19822 73.253 -7.09822 70.513 -8.87822 67.413C-11.5182 62.853 -19.6782 65.293 -21.0182 61.853C-21.9982 59.333 -18.8582 55.093 -15.5382 53.053C-11.7782 50.733 -8.51822 51.753 -7.13822 49.353C-6.13822 47.613 -7.37822 46.253 -7.47822 43.833C-7.79822 36.433 3.00178 34.833 5.64178 25.473C7.32178 19.493 3.80178 16.913 6.68178 12.753C8.86178 9.593 13.7218 6.953 17.9418 8.413C19.1618 8.833 20.1018 9.513 20.8218 10.173C19.7818 11.373 18.7418 12.573 17.7018 13.773L18.3818 14.393C19.2218 13.053 20.3618 11.953 21.7818 11.353C21.8418 11.333 21.9018 11.293 21.9818 11.273C25.9418 9.773 31.6018 12.153 34.1618 17.773C33.7818 17.933 33.4018 18.093 33.0418 18.273C33.0418 18.293 33.0618 18.313 33.0618 18.333C33.1818 18.833 33.2418 19.333 33.2618 19.853C33.2618 19.953 33.2618 20.053 33.2618 20.153C33.2618 20.693 33.2418 21.233 33.2218 21.813C33.1818 22.573 33.1418 23.353 33.1818 24.153C33.2218 25.133 33.3618 26.153 33.7418 27.213C33.9018 27.653 34.1018 28.113 34.3418 28.553C35.0218 29.813 35.8418 30.573 36.1018 30.813C38.5218 33.053 41.4818 33.273 42.4618 33.453C46.5618 34.113 51.9218 40.173 53.5418 46.593Z" fill="black"/>
    <path d="M20.802 10.0931C19.762 11.2931 18.722 12.4931 17.682 13.6931L18.802 14.6931L21.922 11.2131L21.962 11.1731C21.562 10.8131 21.182 10.4531 20.802 10.0931Z" fill="#8C1DF1"/>
    <path d="M34.142 21.5932C33.962 20.5732 33.622 19.4132 33.042 18.2532C33.022 18.2332 33.022 18.2132 33.002 18.1932C30.942 19.0932 28.842 20.0532 26.702 21.0332C26.482 21.1332 26.262 21.2332 26.042 21.3332C25.882 21.4132 25.722 21.4932 25.562 21.5532C24.262 22.1732 22.982 22.7732 21.722 23.3932C21.582 23.4532 21.442 23.5332 21.302 23.5932C21.142 23.6732 20.982 23.7532 20.822 23.8332C20.182 24.1532 19.562 24.4532 18.922 24.7732C18.842 24.8132 18.782 24.8532 18.702 24.8732C18.602 24.9332 18.502 24.9732 18.402 25.0332C18.442 25.1532 18.482 25.2732 18.542 25.3932C18.682 25.7532 18.842 26.0732 18.842 26.0732C18.842 26.0732 19.242 26.8132 19.862 27.4732C19.902 27.5132 20.382 27.9732 21.162 28.5732L21.182 28.5932H21.162L21.262 28.9532L22.542 33.8732V33.8932L24.342 36.3732C24.382 36.3332 24.442 36.3532 24.482 36.3932L30.382 44.4932L30.082 38.1132C30.082 38.0532 30.122 38.0132 30.182 38.0132L29.942 32.7332L29.902 31.7932V31.6932C29.902 31.6932 29.922 31.6932 29.922 31.6732C32.062 30.9132 33.162 28.6932 33.722 27.1132C33.962 26.3932 34.102 25.8332 34.162 25.5932C34.162 25.5932 34.342 24.8132 34.322 23.5932C34.322 23.0532 34.282 22.3532 34.142 21.5932Z" fill="#FF1EAD"/>
    <path d="M27.8419 32.1131C27.5219 32.1131 27.2019 32.0931 26.8819 32.0531C25.1019 31.8131 23.8419 30.9531 23.0819 30.2731C23.0419 30.2331 23.0419 30.1731 23.0819 30.1331C23.1219 30.0931 23.1819 30.0931 23.2219 30.1331C23.9619 30.7931 25.2019 31.6131 26.9219 31.8531C27.8819 31.9931 28.8619 31.9131 29.8219 31.6331C29.8819 31.6131 29.9219 31.6531 29.9419 31.6931C29.9619 31.7531 29.9219 31.7931 29.8819 31.8131C29.1819 32.0131 28.5219 32.1131 27.8419 32.1131Z" fill="black"/>
    <path d="M29.6821 26.5731C29.6421 26.5731 29.6021 26.5531 29.5821 26.5131C29.5621 26.4531 29.5821 26.4131 29.6421 26.3931L31.4021 25.7331L29.8621 22.6131C29.8421 22.5731 29.8621 22.5131 29.9021 22.4731C29.9421 22.4531 30.0021 22.4731 30.0421 22.5131L31.6221 25.7331C31.6421 25.7531 31.6421 25.7931 31.6221 25.8131C31.6021 25.8331 31.5821 25.8531 31.5621 25.8731L29.7021 26.5731C29.7221 26.5731 29.7021 26.5731 29.6821 26.5731Z" fill="black"/>
    <path d="M29.442 29.2931C28.602 29.2931 27.762 28.6731 27.402 27.7331C27.382 27.6931 27.402 27.6531 27.422 27.6331C27.442 27.6131 27.482 27.5931 27.522 27.6131L30.782 28.5331C30.822 28.5331 30.842 28.5731 30.842 28.6131C30.842 28.6531 30.842 28.6931 30.822 28.7131C30.622 28.9331 30.162 29.2931 29.562 29.3331C29.502 29.2931 29.482 29.2931 29.442 29.2931ZM27.662 27.8331C28.042 28.6331 28.782 29.1331 29.522 29.0731C29.962 29.0531 30.322 28.8131 30.522 28.6331L27.662 27.8331Z" fill="black"/>
    <path d="M32.1913 20.7391C32.9033 20.4376 33.4142 20.0366 33.3324 19.8433C33.2506 19.65 32.607 19.7378 31.895 20.0392C31.1829 20.3407 30.672 20.7418 30.7539 20.935C30.8357 21.1283 31.4793 21.0406 32.1913 20.7391Z" fill="black"/>
    <path d="M26.8221 21.7931C27.5953 21.7931 28.2221 21.623 28.2221 21.4131C28.2221 21.2033 27.5953 21.0331 26.8221 21.0331C26.0489 21.0331 25.4221 21.2033 25.4221 21.4131C25.4221 21.623 26.0489 21.7931 26.8221 21.7931Z" fill="black"/>
    <path d="M27.7017 22.953C27.9337 22.953 28.1217 22.765 28.1217 22.533C28.1217 22.3011 27.9337 22.113 27.7017 22.113C27.4698 22.113 27.2817 22.3011 27.2817 22.533C27.2817 22.765 27.4698 22.953 27.7017 22.953Z" fill="black"/>
    <path d="M32.6416 22.0931C32.8735 22.0931 33.0616 21.905 33.0616 21.6731C33.0616 21.4411 32.8735 21.2531 32.6416 21.2531C32.4096 21.2531 32.2216 21.4411 32.2216 21.6731C32.2216 21.905 32.4096 22.0931 32.6416 22.0931Z" fill="black"/>
    <path d="M29.0421 22.413C29.2621 23.653 28.3821 24.873 27.1021 25.113C25.8021 25.353 24.5621 24.513 24.3221 23.273C25.8821 22.973 27.4621 22.693 29.0421 22.413Z" fill="black"/>
    <path d="M35.2422 21.413C35.4422 22.673 34.5222 23.853 33.2222 24.073C31.9222 24.293 30.6822 23.413 30.5022 22.153C32.0822 21.893 33.6622 21.653 35.2422 21.413Z" fill="black"/>
    <path d="M25.7219 25.073C25.7019 25.073 25.7019 25.073 25.6819 25.073C25.6219 25.053 25.6019 24.993 25.6219 24.933C25.8419 24.413 25.7219 24.313 25.4819 24.113C25.3619 24.013 25.2219 23.913 25.1019 23.713C24.9419 23.493 24.9419 23.253 25.1019 23.053C25.1419 23.013 25.2019 22.993 25.2419 23.033C25.2819 23.073 25.3019 23.133 25.2619 23.173C25.1619 23.313 25.1619 23.453 25.2619 23.613C25.3619 23.773 25.5019 23.873 25.6019 23.973C25.8619 24.173 26.0819 24.353 25.8019 25.013C25.8019 25.053 25.7619 25.073 25.7219 25.073Z" fill="white"/>
    <path d="M31.9619 24.033C31.9419 24.033 31.9419 24.033 31.9219 24.033C31.8619 24.013 31.8419 23.953 31.8619 23.893C32.1219 23.293 32.0019 23.193 31.7419 22.993C31.6219 22.893 31.4819 22.793 31.3619 22.593C31.1819 22.313 31.2419 22.093 31.3419 21.953C31.3819 21.913 31.4419 21.893 31.4819 21.933C31.5219 21.973 31.5419 22.033 31.5019 22.073C31.4219 22.213 31.4219 22.353 31.5219 22.493C31.6219 22.653 31.7619 22.753 31.8619 22.833C32.1619 23.073 32.3419 23.273 32.0219 23.973C32.0419 23.993 32.0019 24.033 31.9619 24.033Z" fill="white"/>
    <path d="M28.3421 23.173C28.3021 23.173 28.2421 23.133 28.2421 23.093C28.2421 23.033 28.2621 22.993 28.3221 22.973L31.0421 22.553C31.1021 22.553 31.1421 22.573 31.1621 22.633C31.1621 22.693 31.1421 22.733 31.0821 22.753L28.3421 23.173Z" fill="black"/>
    <path d="M16.442 23.6529C16.382 23.6529 16.342 23.6129 16.342 23.5529C16.342 23.4929 16.382 23.4529 16.442 23.4529L24.562 23.3729C24.622 23.3729 24.662 23.4129 24.662 23.4729C24.662 23.5329 24.622 23.5729 24.562 23.5729L16.442 23.6529Z" fill="black"/>
    <path d="M22.4622 25.913C22.3022 25.193 21.9022 24.593 21.3622 24.193C20.9022 23.833 20.3222 23.613 19.7222 23.593C19.4622 23.573 19.2022 23.593 18.9422 23.653C17.3422 23.993 16.3222 25.573 16.6622 27.153C17.0022 28.753 18.5822 29.773 20.1822 29.433C21.8022 29.093 22.8022 27.513 22.4622 25.913Z" fill="#FF1EAD"/>
    <path d="M20.8222 27.6532C20.8022 27.6532 20.7822 27.6532 20.7822 27.6332C20.4622 27.4732 20.2422 27.1332 20.2222 26.7732C20.2022 26.4532 20.3422 26.1532 20.5822 25.9532L18.0222 24.4932C17.9822 24.4732 17.9622 24.4132 17.9822 24.3532C18.0022 24.3132 18.0622 24.2932 18.1222 24.3132L20.8222 25.8532C20.8622 25.8732 20.8622 25.8932 20.8822 25.9332C20.9022 25.9732 20.8622 25.9932 20.8422 26.0132C20.5822 26.1732 20.4422 26.4532 20.4422 26.7532C20.4622 27.0532 20.6222 27.3132 20.8822 27.4332C20.9222 27.4532 20.9422 27.5132 20.9222 27.5732C20.9022 27.6332 20.8622 27.6532 20.8222 27.6532Z" fill="black"/>
    <path d="M19.7219 29.213C20.0643 29.213 20.3419 28.9354 20.3419 28.593C20.3419 28.2506 20.0643 27.973 19.7219 27.973C19.3795 27.973 19.1019 28.2506 19.1019 28.593C19.1019 28.9354 19.3795 29.213 19.7219 29.213Z" fill="#1F0D60"/>
    <path d="M44.7221 66.9131C43.6021 67.0131 42.4821 67.1331 41.3621 67.2331C36.2221 67.7331 31.0821 68.2131 25.9421 68.7131C25.7421 68.7331 25.5421 68.7531 25.3421 68.7731C24.8421 68.8131 24.3421 68.8731 23.8421 68.9131C23.5021 68.953 23.1821 68.973 22.8421 69.0131C21.8421 69.113 20.8221 69.2131 19.8221 69.313C18.8621 69.4131 17.9021 69.493 16.9421 69.593C16.1221 69.673 15.3021 69.7531 14.4821 69.833L14.5821 68.2531L15.6021 53.713L15.7621 51.9531C16.2021 46.7931 16.6421 41.6531 17.0821 36.4931C17.3421 36.3331 17.6421 36.1531 17.9421 35.9931C18.1221 35.8931 18.3021 35.7931 18.5021 35.6931C18.6821 35.5931 18.8621 35.4931 19.0621 35.3931C19.2821 35.2931 19.5021 35.1731 19.7221 35.0731C20.5821 34.6531 21.5221 34.273 22.5421 33.913V33.9331L24.3421 36.4131C24.3821 36.3731 24.4421 36.3931 24.4821 36.4331L30.3821 44.5331L30.0821 38.1531C30.0821 38.0931 30.1221 38.0531 30.1821 38.0531C30.1021 36.2931 30.0221 34.5331 29.9621 32.7731C31.7221 32.7531 33.1021 32.9531 34.0821 33.1731C34.3221 33.2331 34.5221 33.2731 34.6021 33.2931C36.1421 33.6731 37.3421 34.2131 38.2021 34.6331C39.4621 38.9131 40.6621 43.5131 41.7021 48.4331C41.9021 49.4131 42.1021 50.3731 42.3021 51.3331C43.0221 55.0131 43.6221 58.573 44.1021 61.993C44.3221 63.633 44.5421 65.293 44.7221 66.9131Z" fill="#290060"/>
    <path d="M30.6025 44.833C30.6025 44.873 30.5825 44.913 30.5425 44.933C30.5225 44.933 30.5225 44.933 30.5025 44.933C30.4625 44.933 30.4425 44.913 30.4225 44.893L24.3225 36.533C24.2825 36.493 24.3025 36.433 24.3425 36.393C24.3825 36.353 24.4425 36.373 24.4825 36.413L30.3825 44.513L30.0825 38.133C30.0825 38.073 30.1225 38.033 30.1825 38.033C30.2425 38.033 30.2825 38.073 30.2825 38.133L30.6025 44.833Z" fill="black"/>
  </g>
  <defs>
    <clipPath id="clip0_145_1120">
      <rect width="48" height="48" rx="24" fill="white"/>
    </clipPath>
  </defs>
</svg>
