<svg width="24" height="24" viewBox="0 0 24 24" fill="none" xmlns="http://www.w3.org/2000/svg">
<path d="M11.0909 21.0909C6.07 21.0909 2 17.0209 2 12C2 6.97906 6.07 2.90906 11.0909 2.90906C12.5024 2.908 13.8947 3.23613 15.1572 3.86737C16.4197 4.49862 17.5176 5.41558 18.3636 6.54542H15.9C14.8502 5.61975 13.5556 5.01666 12.1716 4.80851C10.7875 4.60037 9.37279 4.79602 8.09717 5.37198C6.82155 5.94794 5.73923 6.87975 4.98006 8.05559C4.2209 9.23144 3.81715 10.6014 3.81727 12.001C3.81739 13.4006 4.22136 14.7705 4.98072 15.9462C5.74008 17.1219 6.82256 18.0535 8.09827 18.6293C9.37399 19.205 10.7887 19.4004 12.1728 19.192C13.5568 18.9837 14.8513 18.3804 15.9009 17.4545H18.3645C17.5184 18.5845 16.4204 19.5015 15.1577 20.1328C13.8951 20.764 12.5026 21.0921 11.0909 21.0909ZM17.4545 15.6363V12.9091H10.1818V11.0909H17.4545V8.36361L22 12L17.4545 15.6363Z" fill="#FF2D46"/>
</svg>
