<svg width="24" height="24" viewBox="0 0 24 24" fill="none" xmlns="http://www.w3.org/2000/svg">
<path d="M2.00098 12.0003C2.00098 11.1353 2.11098 10.2963 2.31698 9.49633C2.86944 9.52537 3.41918 9.40108 3.90542 9.1372C4.39166 8.87331 4.79546 8.48012 5.07218 8.00107C5.34891 7.52203 5.48778 6.97579 5.47345 6.42275C5.45912 5.86971 5.29214 5.3314 4.99098 4.86733C6.19981 3.67753 7.69167 2.81511 9.32598 2.36133C9.57697 2.8548 9.95961 3.2692 10.4316 3.55864C10.9035 3.84808 11.4463 4.00128 12 4.00128C12.5536 4.00128 13.0964 3.84808 13.5684 3.55864C14.0403 3.2692 14.423 2.8548 14.674 2.36133C16.3083 2.81511 17.8001 3.67753 19.009 4.86733C18.7075 5.33148 18.5402 5.87 18.5258 6.42329C18.5114 6.97659 18.6503 7.52309 18.9272 8.00234C19.2041 8.48159 19.6081 8.87489 20.0947 9.13874C20.5812 9.40259 21.1313 9.5267 21.684 9.49733C21.89 10.2973 22 11.1353 22 12.0003C22 12.8643 21.89 13.7033 21.684 14.5033C21.1313 14.474 20.5812 14.5981 20.0947 14.8619C19.6081 15.1258 19.2041 15.5191 18.9272 15.9983C18.6503 16.4776 18.5114 17.0241 18.5258 17.5774C18.5402 18.1307 18.7075 18.6692 19.009 19.1333C17.8 20.3228 16.3082 21.1848 14.674 21.6383C14.423 21.1449 14.0403 20.7305 13.5684 20.441C13.0964 20.1516 12.5536 19.9984 12 19.9984C11.4463 19.9984 10.9035 20.1516 10.4316 20.441C9.95961 20.7305 9.57697 21.1449 9.32598 21.6383C7.69177 21.1848 6.19992 20.3228 4.99098 19.1333C5.29248 18.6692 5.45971 18.1307 5.47414 17.5774C5.48858 17.0241 5.34968 16.4776 5.07279 15.9983C4.7959 15.5191 4.39183 15.1258 3.90528 14.8619C3.41874 14.5981 2.86868 14.474 2.31598 14.5033C2.11098 13.7033 2.00098 12.8643 2.00098 12.0003ZM6.80498 15.0003C7.43498 16.0913 7.61498 17.3463 7.36898 18.5243C7.77698 18.8143 8.21098 19.0653 8.66598 19.2743C9.58264 18.4532 10.7703 17.9995 12.001 18.0003C13.261 18.0003 14.439 18.4713 15.336 19.2743C15.791 19.0653 16.225 18.8143 16.633 18.5243C16.3804 17.3203 16.5813 16.0654 17.197 15.0003C17.8116 13.9347 18.798 13.1335 19.967 12.7503C20.0131 12.2514 20.0131 11.7493 19.967 11.2503C18.7976 10.8674 17.8108 10.0661 17.196 9.00033C16.5803 7.93526 16.3794 6.68036 16.632 5.47633C16.2241 5.18626 15.7898 4.93516 15.335 4.72633C14.4186 5.54726 13.2313 6.00094 12.001 6.00033C10.7703 6.00118 9.58264 5.54749 8.66598 4.72633C8.21111 4.93515 7.77686 5.18626 7.36898 5.47633C7.62154 6.68036 7.4207 7.93526 6.80498 9.00033C6.19035 10.066 5.20396 10.8672 4.03498 11.2503C3.98872 11.7493 3.98872 12.2514 4.03498 12.7503C5.20433 13.1333 6.19011 13.9345 6.80498 15.0003ZM12.001 15.0003C11.2053 15.0003 10.4423 14.6843 9.87966 14.1216C9.31705 13.559 9.00098 12.796 9.00098 12.0003C9.00098 11.2047 9.31705 10.4416 9.87966 9.87901C10.4423 9.3164 11.2053 9.00033 12.001 9.00033C12.7966 9.00033 13.5597 9.3164 14.1223 9.87901C14.6849 10.4416 15.001 11.2047 15.001 12.0003C15.001 12.796 14.6849 13.559 14.1223 14.1216C13.5597 14.6843 12.7966 15.0003 12.001 15.0003ZM12.001 13.0003C12.2662 13.0003 12.5205 12.895 12.7081 12.7074C12.8956 12.5199 13.001 12.2655 13.001 12.0003C13.001 11.7351 12.8956 11.4808 12.7081 11.2932C12.5205 11.1057 12.2662 11.0003 12.001 11.0003C11.7358 11.0003 11.4814 11.1057 11.2939 11.2932C11.1063 11.4808 11.001 11.7351 11.001 12.0003C11.001 12.2655 11.1063 12.5199 11.2939 12.7074C11.4814 12.895 11.7358 13.0003 12.001 13.0003Z" fill="#737373"/>
</svg>
