<svg width="24" height="24" viewBox="0 0 24 24" fill="none" xmlns="http://www.w3.org/2000/svg">
<path d="M18.005 7H21.005C21.2702 7 21.5246 7.10536 21.7121 7.29289C21.8996 7.48043 22.005 7.73478 22.005 8V20C22.005 20.2652 21.8996 20.5196 21.7121 20.7071C21.5246 20.8946 21.2702 21 21.005 21H3.005C2.73979 21 2.48543 20.8946 2.2979 20.7071C2.11036 20.5196 2.005 20.2652 2.005 20V4C2.005 3.73478 2.11036 3.48043 2.2979 3.29289C2.48543 3.10536 2.73979 3 3.005 3H18.005V7ZM4.005 9V19H20.005V9H4.005ZM4.005 5V7H16.005V5H4.005ZM15.005 13H18.005V15H15.005V13Z" fill="#737373"/>
</svg>
