<svg fill="none" height="200" viewBox="0 0 200 200" width="200" xmlns="http://www.w3.org/2000/svg">
  <circle cx="100" cy="100" fill="#FFEBEC" r="100"/>
  <path
    d="M100.001 149.382C72.7271 149.382 50.6184 127.274 50.6184 99.9997C50.6184 72.7256 72.7271 50.6169 100.001 50.6169C127.275 50.6169 149.384 72.7256 149.384 99.9997C149.384 127.274 127.275 149.382 100.001 149.382ZM100.001 139.506C110.479 139.506 120.527 135.344 127.936 127.935C135.345 120.526 139.507 110.477 139.507 99.9997C139.507 89.522 135.345 79.4734 127.936 72.0646C120.527 64.6557 110.479 60.4935 100.001 60.4935C89.5234 60.4935 79.4749 64.6557 72.066 72.0646C64.6572 79.4734 60.495 89.522 60.495 99.9997C60.495 110.477 64.6572 120.526 72.066 127.935C79.4749 135.344 89.5234 139.506 100.001 139.506ZM75.3098 124.691C75.3098 118.142 77.9112 111.862 82.5417 107.232C87.1722 102.601 93.4526 99.9997 100.001 99.9997C106.55 99.9997 112.83 102.601 117.461 107.232C122.091 111.862 124.692 118.142 124.692 124.691H114.816C114.816 120.762 113.255 116.994 110.477 114.215C107.698 111.437 103.93 109.876 100.001 109.876C96.072 109.876 92.3038 111.437 89.5255 114.215C86.7472 116.994 85.1863 120.762 85.1863 124.691H75.3098ZM80.248 95.0614C78.2835 95.0614 76.3994 94.281 75.0102 92.8918C73.621 91.5027 72.8406 89.6185 72.8406 87.654C72.8406 85.6894 73.621 83.8053 75.0102 82.4162C76.3994 81.027 78.2835 80.2466 80.248 80.2466C82.2126 80.2466 84.0967 81.027 85.4859 82.4162C86.875 83.8053 87.6554 85.6894 87.6554 87.654C87.6554 89.6185 86.875 91.5027 85.4859 92.8918C84.0967 94.281 82.2126 95.0614 80.248 95.0614ZM119.754 95.0614C117.79 95.0614 115.906 94.281 114.516 92.8918C113.127 91.5027 112.347 89.6185 112.347 87.654C112.347 85.6894 113.127 83.8053 114.516 82.4162C115.906 81.027 117.79 80.2466 119.754 80.2466C121.719 80.2466 123.603 81.027 124.992 82.4162C126.381 83.8053 127.162 85.6894 127.162 87.654C127.162 89.6185 126.381 91.5027 124.992 92.8918C123.603 94.281 121.719 95.0614 119.754 95.0614Z"
    fill="#FF2D46"/>
</svg>
