<svg width="200" height="200" viewBox="0 0 200 200" fill="none" xmlns="http://www.w3.org/2000/svg">
  <circle cx="100" cy="100" r="100" fill="#DEFFE6"/>
  <path d="M100.001 149.382C72.7271 149.382 50.6185 127.273 50.6185 99.9994C50.6185 72.7253 72.7271 50.6167 100.001 50.6167C127.275 50.6167 149.384 72.7253 149.384 99.9994C149.384 127.273 127.275 149.382 100.001 149.382ZM100.001 139.506C110.479 139.506 120.527 135.343 127.936 127.935C135.345 120.526 139.507 110.477 139.507 99.9994C139.507 89.5217 135.345 79.4732 127.936 72.0643C120.527 64.6555 110.479 60.4932 100.001 60.4932C89.5235 60.4932 79.475 64.6555 72.0661 72.0643C64.6573 79.4732 60.495 89.5217 60.495 99.9994C60.495 110.477 64.6573 120.526 72.0661 127.935C79.475 135.343 89.5235 139.506 100.001 139.506ZM75.3098 104.938H85.1864C85.1864 108.867 86.7472 112.635 89.5255 115.413C92.3039 118.192 96.0721 119.753 100.001 119.753C103.93 119.753 107.699 118.192 110.477 115.413C113.255 112.635 114.816 108.867 114.816 104.938H124.693C124.693 111.486 122.091 117.767 117.461 122.397C112.83 127.028 106.55 129.629 100.001 129.629C93.4526 129.629 87.1723 127.028 82.5418 122.397C77.9112 117.767 75.3098 111.486 75.3098 104.938ZM80.2481 95.0611C78.2835 95.0611 76.3994 94.2807 75.0103 92.8916C73.6211 91.5024 72.8407 89.6183 72.8407 87.6537C72.8407 85.6892 73.6211 83.8051 75.0103 82.4159C76.3994 81.0267 78.2835 80.2463 80.2481 80.2463C82.2127 80.2463 84.0968 81.0267 85.4859 82.4159C86.8751 83.8051 87.6555 85.6892 87.6555 87.6537C87.6555 89.6183 86.8751 91.5024 85.4859 92.8916C84.0968 94.2807 82.2127 95.0611 80.2481 95.0611ZM119.754 95.0611C117.79 95.0611 115.906 94.2807 114.516 92.8916C113.127 91.5024 112.347 89.6183 112.347 87.6537C112.347 85.6892 113.127 83.8051 114.516 82.4159C115.906 81.0267 117.79 80.2463 119.754 80.2463C121.719 80.2463 123.603 81.0267 124.992 82.4159C126.381 83.8051 127.162 85.6892 127.162 87.6537C127.162 89.6183 126.381 91.5024 124.992 92.8916C123.603 94.2807 121.719 95.0611 119.754 95.0611Z" fill="#34C759"/>
</svg>
