<svg width="20" height="19" viewBox="0 0 20 19" fill="none" xmlns="http://www.w3.org/2000/svg">
  <path d="M19 0.170654C19.2652 0.170654 19.5196 0.276011 19.7071 0.463547C19.8946 0.651084 20 0.905438 20 1.17065V17.1707C20 17.4359 19.8946 17.6902 19.7071 17.8778C19.5196 18.0653 19.2652 18.1707 19 18.1707H1C0.734784 18.1707 0.48043 18.0653 0.292893 17.8778C0.105357 17.6902 0 17.4359 0 17.1707V1.17065C0 0.905438 0.105357 0.651084 0.292893 0.463547C0.48043 0.276011 0.734784 0.170654 1 0.170654H19ZM9 10.1707H2V16.1707H9V10.1707ZM18 10.1707H11V16.1707H18V10.1707ZM9 2.17065H2V8.17065H9V2.17065ZM18 2.17065H11V8.17065H18V2.17065Z" fill="#171717"/>
</svg>
