<svg width="20" height="21" viewBox="0 0 20 21" fill="none" xmlns="http://www.w3.org/2000/svg">
  <path d="M7 0.170654V2.17065H13V0.170654H15V2.17065H19C19.2652 2.17065 19.5196 2.27601 19.7071 2.46355C19.8946 2.65108 20 2.90544 20 3.17065V19.1707C20 19.4359 19.8946 19.6902 19.7071 19.8778C19.5196 20.0653 19.2652 20.1707 19 20.1707H1C0.734784 20.1707 0.48043 20.0653 0.292893 19.8778C0.105357 19.6902 0 19.4359 0 19.1707V3.17065C0 2.90544 0.105357 2.65108 0.292893 2.46355C0.48043 2.27601 0.734784 2.17065 1 2.17065H5V0.170654H7ZM18 10.1707H2V18.1707H18V10.1707ZM5 4.17065H2V8.17065H18V4.17065H15V6.17065H13V4.17065H7V6.17065H5V4.17065Z" fill="#171717"/>
</svg>
