<svg width="20" height="20" viewBox="0 0 20 20" fill="none" xmlns="http://www.w3.org/2000/svg">
  <path d="M17.3694 17.8944V8.20786L10 2.39443L2.63058 8.20786V17.8944H17.3694ZM19.475 18.9472C19.475 19.2264 19.3641 19.4942 19.1666 19.6917C18.9692 19.8891 18.7014 20 18.4222 20H1.5778C1.29859 20 1.03081 19.8891 0.833375 19.6917C0.635942 19.4942 0.525024 19.2264 0.525024 18.9472V7.69726C0.524961 7.53824 0.560923 7.38127 0.630211 7.23814C0.699498 7.09501 0.800311 6.96943 0.925079 6.87083L9.34729 0.226766C9.53315 0.0798941 9.76312 0 10 0C10.2369 0 10.4669 0.0798941 10.6527 0.226766L19.0749 6.86978C19.1998 6.96848 19.3007 7.09423 19.37 7.23756C19.4393 7.38089 19.4752 7.53806 19.475 7.69726V18.9472ZM4.73613 10.525H6.84168C6.84168 11.3627 7.17443 12.166 7.76673 12.7583C8.35903 13.3506 9.16237 13.6833 10 13.6833C10.8376 13.6833 11.641 13.3506 12.2333 12.7583C12.8256 12.166 13.1583 11.3627 13.1583 10.525H15.2639C15.2639 11.9211 14.7093 13.26 13.7221 14.2471C12.735 15.2343 11.3961 15.7889 10 15.7889C8.60394 15.7889 7.26505 15.2343 6.27788 14.2471C5.29071 13.26 4.73613 11.9211 4.73613 10.525Z" fill="#171717"/>
</svg>
