<svg width="20" height="21" viewBox="0 0 20 21" fill="none" xmlns="http://www.w3.org/2000/svg">
  <path d="M17.3693 18.0651V8.37851L9.99989 2.56509L2.63045 8.37851V18.0651H17.3693ZM19.4749 19.1179C19.4749 19.3971 19.364 19.6649 19.1665 19.8623C18.9691 20.0597 18.7013 20.1707 18.4221 20.1707H1.57768C1.29846 20.1707 1.03069 20.0597 0.833253 19.8623C0.63582 19.6649 0.524902 19.3971 0.524902 19.1179V7.86792C0.524839 7.7089 0.560801 7.55193 0.630089 7.40879C0.699376 7.26566 0.800189 7.14008 0.924957 7.04149L9.34716 0.39742C9.53303 0.250548 9.76299 0.170654 9.99989 0.170654C10.2368 0.170654 10.4667 0.250548 10.6526 0.39742L19.0748 7.04044C19.1997 7.13914 19.3006 7.26489 19.3699 7.40821C19.4392 7.55154 19.4751 7.70872 19.4749 7.86792V19.1179ZM4.73601 10.6957H6.84156C6.84156 11.5333 7.17431 12.3366 7.76661 12.9289C8.35891 13.5212 9.16224 13.854 9.99989 13.854C10.8375 13.854 11.6409 13.5212 12.2332 12.9289C12.8255 12.3366 13.1582 11.5333 13.1582 10.6957H15.2638C15.2638 12.0917 14.7092 13.4306 13.722 14.4178C12.7348 15.405 11.396 15.9596 9.99989 15.9596C8.60382 15.9596 7.26493 15.405 6.27776 14.4178C5.29059 13.4306 4.73601 12.0917 4.73601 10.6957Z" fill="#7969E6"/>
</svg>
