<svg width="24" height="25" viewBox="0 0 24 25" fill="none" xmlns="http://www.w3.org/2000/svg">
  <path d="M4 22.1707C4 20.15 4.80272 18.212 6.23157 16.7832C7.66042 15.3543 9.59835 14.5516 11.619 14.5516C13.6397 14.5516 15.5777 15.3543 17.0065 16.7832C18.4354 18.212 19.2381 20.15 19.2381 22.1707H17.3333C17.3333 20.6551 16.7313 19.2017 15.6597 18.13C14.588 17.0584 13.1346 16.4564 11.619 16.4564C10.1035 16.4564 8.65007 17.0584 7.57844 18.13C6.5068 19.2017 5.90476 20.6551 5.90476 22.1707H4ZM11.619 13.5992C8.4619 13.5992 5.90476 11.0421 5.90476 7.88494C5.90476 4.7278 8.4619 2.17065 11.619 2.17065C14.7762 2.17065 17.3333 4.7278 17.3333 7.88494C17.3333 11.0421 14.7762 13.5992 11.619 13.5992ZM11.619 11.6945C13.7238 11.6945 15.4286 9.9897 15.4286 7.88494C15.4286 5.78018 13.7238 4.07542 11.619 4.07542C9.51429 4.07542 7.80952 5.78018 7.80952 7.88494C7.80952 9.9897 9.51429 11.6945 11.619 11.6945Z" fill="#171717"/>
</svg>
