<svg width="20" height="21" viewBox="0 0 20 21" fill="none" xmlns="http://www.w3.org/2000/svg">
  <path d="M10 20.1707C4.477 20.1707 0 15.6937 0 10.1707C0 4.64765 4.477 0.170654 10 0.170654C15.523 0.170654 20 4.64765 20 10.1707C20 15.6937 15.523 20.1707 10 20.1707ZM10 18.1707C12.1217 18.1707 14.1566 17.3278 15.6569 15.8275C17.1571 14.3272 18 12.2924 18 10.1707C18 8.04892 17.1571 6.01409 15.6569 4.5138C14.1566 3.01351 12.1217 2.17065 10 2.17065C7.87827 2.17065 5.84344 3.01351 4.34315 4.5138C2.84285 6.01409 2 8.04892 2 10.1707C2 12.2924 2.84285 14.3272 4.34315 15.8275C5.84344 17.3278 7.87827 18.1707 10 18.1707ZM9 13.1707H11V15.1707H9V13.1707ZM11 11.5257V12.1707H9V10.6707C9 10.4054 9.10536 10.1511 9.29289 9.96355C9.48043 9.77601 9.73478 9.67065 10 9.67065C10.2841 9.67064 10.5623 9.58995 10.8023 9.43798C11.0423 9.28602 11.2343 9.06902 11.3558 8.81224C11.4773 8.55546 11.5234 8.26945 11.4887 7.9875C11.454 7.70554 11.34 7.43924 11.1598 7.21957C10.9797 6.99989 10.7409 6.83588 10.4712 6.74662C10.2015 6.65736 9.91204 6.64652 9.63643 6.71536C9.36081 6.7842 9.11042 6.92988 8.91437 7.13547C8.71832 7.34106 8.58468 7.59809 8.529 7.87665L6.567 7.48365C6.68863 6.87574 6.96951 6.31103 7.38092 5.84724C7.79233 5.38346 8.31952 5.03724 8.90859 4.84397C9.49766 4.65071 10.1275 4.61734 10.7337 4.74727C11.3399 4.8772 11.9007 5.16577 12.3588 5.58348C12.8169 6.00119 13.1559 6.53306 13.3411 7.12472C13.5263 7.71638 13.5511 8.3466 13.4129 8.95096C13.2747 9.55533 12.9785 10.1122 12.5545 10.5645C12.1306 11.0169 11.5941 11.3486 11 11.5257Z" fill="#171717"/>
</svg>
