<svg width="20" height="20" viewBox="0 0 20 20" fill="none" xmlns="http://www.w3.org/2000/svg">
  <path d="M19.3023 16.7442H0.697678V14.8837H1.62791V8.40093C1.62791 3.76093 5.37675 0 10 0C14.6233 0 18.3721 3.76093 18.3721 8.40093V14.8837H19.3023V16.7442ZM3.48838 14.8837H16.5116V8.40093C16.5116 4.78884 13.5963 1.86047 10 1.86047C6.40372 1.86047 3.48838 4.78884 3.48838 8.40093V14.8837ZM7.67442 17.6744H12.3256C12.3256 18.2912 12.0806 18.8827 11.6444 19.3189C11.2083 19.755 10.6168 20 10 20C9.38322 20 8.7917 19.755 8.35557 19.3189C7.91944 18.8827 7.67442 18.2912 7.67442 17.6744Z" fill="#171717"/>
</svg>
