<svg width="48" height="48" viewBox="0 0 48 48" fill="none" xmlns="http://www.w3.org/2000/svg">
  <rect width="48" height="48" rx="24" fill="#CAECFF"/>
  <path d="M30.0524 11.9629L31.5218 14.7213L34.2736 16.1926L31.5218 17.6638L30.0546 20.42L28.583 17.6649L25.8312 16.1926L28.5841 14.7224L30.0524 11.9629ZM23.0026 21.0257L28.5685 24.0005L23.0026 26.9742L20.0348 32.5513L17.0659 26.9742L11.5 24.0005L17.0659 21.0257L20.0348 15.4486L23.0026 21.0257ZM23.8375 24.0005L21.3584 22.6731L20.0348 20.1891L18.7112 22.6743L16.2311 24.0005L18.7112 25.3256L20.0348 27.8108L21.3573 25.3256L23.8375 24.0005ZM33.0213 28.8336L31.1667 25.3479L29.311 28.8336L25.8323 30.693L29.311 32.5513L31.1667 36.037L33.0213 32.5513L36.5 30.693L33.0213 28.8336Z" fill="#00A3FF"/>
</svg>
