<svg width="48" height="48" viewBox="0 0 48 48" fill="none" xmlns="http://www.w3.org/2000/svg">
  <rect width="48" height="48" rx="24" fill="#DEFFE6"/>
  <path d="M14 12.75C13.6685 12.75 13.3505 12.8817 13.1161 13.1161C12.8817 13.3505 12.75 13.6685 12.75 14V21.5C12.75 21.8315 12.8817 22.1495 13.1161 22.3839C13.3505 22.6183 13.6685 22.75 14 22.75H21.5C21.8315 22.75 22.1495 22.6183 22.3839 22.3839C22.6183 22.1495 22.75 21.8315 22.75 21.5V14C22.75 13.6685 22.6183 13.3505 22.3839 13.1161C22.1495 12.8817 21.8315 12.75 21.5 12.75H14ZM14 25.25C13.6685 25.25 13.3505 25.3817 13.1161 25.6161C12.8817 25.8505 12.75 26.1685 12.75 26.5V34C12.75 34.3315 12.8817 34.6495 13.1161 34.8839C13.3505 35.1183 13.6685 35.25 14 35.25H21.5C21.8315 35.25 22.1495 35.1183 22.3839 34.8839C22.6183 34.6495 22.75 34.3315 22.75 34V26.5C22.75 26.1685 22.6183 25.8505 22.3839 25.6161C22.1495 25.3817 21.8315 25.25 21.5 25.25H14ZM26.5 25.25C26.1685 25.25 25.8505 25.3817 25.6161 25.6161C25.3817 25.8505 25.25 26.1685 25.25 26.5V34C25.25 34.3315 25.3817 34.6495 25.6161 34.8839C25.8505 35.1183 26.1685 35.25 26.5 35.25H34C34.3315 35.25 34.6495 35.1183 34.8839 34.8839C35.1183 34.6495 35.25 34.3315 35.25 34V26.5C35.25 26.1685 35.1183 25.8505 34.8839 25.6161C34.6495 25.3817 34.3315 25.25 34 25.25H26.5ZM27.75 32.75V27.75H32.75V32.75H27.75ZM15.25 20.25V15.25H20.25V20.25H15.25ZM15.25 32.75V27.75H20.25V32.75H15.25ZM29 22.75V19H25.25V16.5H29V12.75H31.5V16.5H35.25V19H31.5V22.75H29Z" fill="#34C759"/>
</svg>
