<svg width="48" height="48" viewBox="0 0 48 48" fill="none" xmlns="http://www.w3.org/2000/svg">
  <rect width="48" height="48" rx="24" fill="#FFEBEC"/>
  <path d="M31.0225 16.46L32.8388 14.6438L34.6063 16.4113L32.79 18.2275C34.3812 20.2189 35.2489 22.6916 35.251 25.2407C35.2531 27.7897 34.3895 30.2638 32.8017 32.2579C31.2138 34.2519 28.9959 35.6476 26.5111 36.2164C24.0264 36.7851 21.4221 36.4932 19.125 35.3884C16.8278 34.2836 14.974 32.4314 13.8671 30.1353C12.7602 27.8392 12.4658 25.2352 13.0323 22.7499C13.5988 20.2646 14.9924 18.0454 16.985 16.4557C18.9776 14.8661 21.451 14.0002 24 14C26.6563 14 29.0975 14.92 31.0225 16.46ZM24 34C25.1491 34 26.2869 33.7737 27.3485 33.3339C28.4101 32.8942 29.3747 32.2497 30.1872 31.4372C30.9997 30.6247 31.6442 29.6601 32.084 28.5985C32.5237 27.5369 32.75 26.3991 32.75 25.25C32.75 24.1009 32.5237 22.9631 32.084 21.9015C31.6442 20.8399 30.9997 19.8753 30.1872 19.0628C29.3747 18.2503 28.4101 17.6058 27.3485 17.1661C26.2869 16.7263 25.1491 16.5 24 16.5C21.6794 16.5 19.4538 17.4219 17.8128 19.0628C16.1719 20.7038 15.25 22.9294 15.25 25.25C15.25 27.5706 16.1719 29.7962 17.8128 31.4372C19.4538 33.0781 21.6794 34 24 34ZM22.75 19H25.25V26.5H22.75V19ZM19 10.25H29V12.75H19V10.25Z" fill="#FF2D46"/>
</svg>
